<?xml version="1.0" standalone="no"?>
<!DOCTYPE svg PUBLIC "-//W3C//DTD SVG 20010904//EN"
 "http://www.w3.org/TR/2001/REC-SVG-20010904/DTD/svg10.dtd">
<svg version="1.0" xmlns="http://www.w3.org/2000/svg"
 width="896.000000pt" height="896.000000pt" viewBox="0 0 896.000000 896.000000"
 preserveAspectRatio="xMidYMid meet">
<metadata>
Created by potrace 1.11, written by Peter Selinger 2001-2013
</metadata>
<g transform="translate(0.000000,896.000000) scale(0.100000,-0.100000)"
fill="#000000" stroke="none">
<path d="M3305 8464 c-280 -33 -474 -118 -653 -288 -65 -62 -142 -154 -142
-170 0 -3 9 -6 20 -6 119 0 260 -269 260 -496 0 -150 -56 -245 -155 -259 -63
-10 -105 0 -148 36 -54 44 -82 99 -121 238 -47 165 -49 166 -65 48 -52 -377
86 -870 371 -1325 l59 -94 -26 -102 c-49 -196 -68 -449 -46 -639 6 -59 5 -67
-8 -61 -75 29 -263 86 -334 100 -87 17 -87 17 -123 66 -54 76 -114 137 -160
164 -37 22 -47 36 -92 137 -27 62 -59 141 -71 177 -21 66 -83 320 -98 399 l-8
44 -55 -48 -56 -48 9 -56 c22 -135 -65 -167 -94 -35 -7 30 -16 54 -21 54 -14
0 -168 -82 -168 -89 0 -27 36 -271 56 -381 33 -184 104 -467 157 -630 29 -88
44 -155 45 -192 2 -108 175 -492 252 -562 37 -34 47 -37 84 -34 22 3 48 8 57
12 13 5 27 -11 64 -71 167 -272 410 -555 659 -770 l60 -51 -33 -59 c-65 -117
-124 -251 -168 -383 -38 -112 -45 -142 -40 -186 6 -54 32 -117 75 -173 l25
-33 -17 -68 c-35 -146 -13 -276 60 -351 l36 -36 -126 -73 c-70 -40 -129 -77
-132 -82 -4 -6 -30 -89 -59 -185 l-53 -176 -101 -101 -101 -101 0 -92 c0 -65
4 -96 14 -105 9 -9 69 -20 163 -31 l150 -16 112 -71 112 -71 89 7 c83 6 89 5
102 -15 14 -23 28 -28 28 -10 0 6 27 73 60 151 33 77 60 152 60 167 0 15 -9
54 -20 86 -17 49 -19 67 -10 119 5 34 10 80 10 104 0 34 3 42 18 42 17 0 215
-59 272 -81 16 -6 51 -49 93 -114 38 -57 75 -106 83 -109 7 -3 62 -6 121 -7
l107 -1 60 -65 c101 -108 136 -114 225 -38 40 34 62 45 99 50 64 8 94 24 113
62 l16 32 93 -91 93 -90 -6 -72 c-9 -125 -32 -166 -160 -294 l-113 -113 -64
136 c-35 75 -71 140 -80 145 -19 10 -152 -21 -175 -40 -8 -7 -27 -32 -42 -56
-45 -71 -58 -65 -203 91 -168 183 -151 186 -285 -55 -56 -102 -109 -186 -117
-188 -9 -2 -62 20 -117 48 -56 27 -101 48 -101 45 0 -2 39 -36 87 -75 64 -51
96 -70 117 -70 16 0 146 16 288 36 l260 37 201 -52 c110 -29 212 -53 226 -53
14 0 91 29 171 64 80 36 240 95 355 132 116 38 216 73 223 78 8 7 12 46 12
127 l0 116 57 22 56 22 79 -40 c196 -99 434 -177 586 -193 72 -8 73 -6 42 76
-24 64 -86 129 -152 158 -26 11 -108 34 -181 50 -217 47 -293 84 -424 207 -60
56 -79 93 -48 93 8 0 25 12 39 26 20 22 29 25 53 19 15 -5 64 -9 108 -10 198
-4 366 -87 556 -275 99 -99 154 -181 180 -272 7 -27 17 -48 22 -48 4 0 15 17
24 38 13 31 14 48 5 101 -12 69 -77 212 -134 296 l-35 49 31 16 c51 25 47 60
-12 117 -41 41 -51 59 -67 118 -16 61 -26 77 -74 126 -40 39 -73 62 -114 77
-71 27 -189 46 -236 38 -29 -4 -45 1 -96 33 -83 53 -186 103 -273 135 -62 22
-88 39 -164 109 -49 45 -100 89 -114 97 -13 8 -24 19 -24 25 0 23 63 116 139
205 45 52 91 114 102 138 19 39 20 49 10 100 -15 76 -61 170 -106 221 -37 41
-99 68 -200 87 l-37 7 7 58 c11 96 8 172 -9 213 -9 21 -16 39 -16 41 0 1 84 5
188 8 585 19 1015 182 1342 506 65 64 129 131 143 149 l26 32 63 -24 c300
-114 715 -329 938 -484 36 -25 111 -81 167 -124 95 -73 140 -95 131 -65 -12
38 -346 274 -563 398 -139 80 -414 212 -570 274 -122 49 -143 60 -133 70 3 4
43 -12 87 -35 137 -69 351 -110 571 -110 l115 0 160 -78 c88 -43 217 -113 287
-155 69 -42 132 -77 138 -77 60 0 -117 120 -357 241 l-145 74 99 12 c244 30
474 106 572 189 35 29 91 119 91 146 0 9 -5 20 -11 24 -6 3 -81 7 -167 9 -130
2 -175 7 -260 29 -127 32 -270 85 -387 143 -87 44 -225 122 -225 128 0 2 20
55 44 118 172 443 211 865 116 1238 -12 44 -18 89 -15 100 10 32 -14 209 -36
260 -27 61 -73 103 -140 126 -40 14 -62 30 -97 73 -77 95 -184 266 -342 545
-172 305 -240 412 -299 470 -38 36 -46 39 -105 43 -78 5 -121 -8 -306 -94 -74
-34 -151 -65 -171 -69 -71 -13 -129 40 -216 197 -29 52 -66 113 -83 137 -31
43 -33 43 -81 39 -35 -4 -92 -26 -192 -76 -136 -68 -142 -70 -163 -54 -12 9
-56 47 -99 84 -160 139 -388 269 -602 342 -213 73 -540 119 -708 100z m-38
-2099 c42 -14 140 -59 218 -99 82 -42 177 -83 224 -95 111 -30 269 -42 451
-35 341 14 567 -41 749 -180 84 -65 134 -127 190 -236 96 -186 137 -379 128
-594 -12 -287 -111 -512 -311 -704 -171 -164 -374 -271 -617 -324 -89 -19
-134 -22 -309 -23 -178 0 -220 3 -320 24 -307 64 -561 188 -748 366 -123 116
-194 230 -233 372 -30 110 -23 291 16 412 25 78 26 86 13 135 -8 33 -13 111
-12 226 0 154 3 188 26 280 106 424 265 565 535 475z m-1570 -377 c50 -54 71
-204 35 -248 -60 -74 -144 125 -99 233 18 43 35 46 64 15z m143 -428 c73 -79
103 -274 45 -296 -36 -14 -64 6 -94 69 -39 78 -50 166 -28 220 19 45 40 47 77
7z m625 -185 c163 -50 205 -70 205 -97 0 -46 -9 -49 -110 -28 -52 11 -131 23
-175 27 l-79 8 -8 42 c-4 23 -15 54 -24 69 l-18 27 49 -8 c28 -4 100 -22 160
-40z m74 -155 c51 -10 95 -21 97 -23 3 -2 -3 -46 -12 -98 -22 -130 -8 -266 42
-404 24 -66 -274 382 -356 535 l-12 23 73 -7 c41 -3 116 -15 168 -26z m1471
-1849 c0 -23 -16 -36 -25 -21 -9 14 1 40 15 40 5 0 10 -9 10 -19z m-50 -86 c0
-19 -20 -29 -32 -17 -8 8 -7 16 2 26 14 17 30 12 30 -9z m827 -969 c71 -19
135 -51 163 -81 31 -33 22 -39 -30 -20 -53 19 -86 18 -42 -1 17 -8 32 -19 32
-24 0 -6 -15 -10 -32 -11 -31 0 -32 -1 -10 -11 31 -15 28 -30 -5 -22 -22 6
-25 4 -20 -9 4 -11 -1 -20 -13 -27 -24 -13 -70 -13 -70 0 0 6 5 10 10 10 6 0
10 5 10 11 0 7 -11 9 -30 6 -37 -8 -41 14 -8 37 22 16 21 16 -20 16 -45 0 -56
13 -19 25 18 6 14 9 -23 14 -25 4 -51 10 -57 14 -23 14 -14 27 20 28 17 0 41
5 52 10 14 6 -7 8 -64 6 -56 -1 -85 2 -88 9 -10 30 157 43 244 20z"/>
<path d="M2993 5899 c-66 -19 -122 -183 -130 -380 l-6 -126 28 -21 c98 -78
240 67 269 274 5 38 4 42 -17 48 -23 5 -47 42 -47 72 0 9 7 31 16 50 14 29 14
37 3 51 -12 13 -72 45 -81 42 -2 0 -18 -5 -35 -10z"/>
<path d="M4158 5663 c-25 -6 -83 -90 -122 -175 -37 -81 -61 -176 -71 -284 -6
-60 -4 -76 14 -112 36 -70 106 -91 179 -53 70 36 127 116 167 235 32 95 32
112 -2 128 -37 17 -67 78 -58 118 4 17 18 44 32 60 l25 30 -32 30 c-26 24 -40
30 -74 29 -22 -1 -49 -3 -58 -6z"/>
<path d="M3096 5059 c-36 -28 -36 -81 0 -114 38 -35 115 -35 149 0 34 33 31
61 -9 101 -41 41 -97 47 -140 13z"/>
<path d="M3080 4826 c14 -16 55 -49 92 -73 101 -66 111 -87 86 -192 -10 -43
-9 -53 6 -76 l17 -27 27 35 c34 45 75 78 132 108 36 19 61 23 125 24 44 0 91
-2 105 -5 22 -4 28 2 55 57 17 34 37 64 45 66 40 12 -46 5 -125 -9 -118 -22
-282 -22 -362 -1 -73 19 -146 54 -194 93 l-34 28 25 -28z"/>
<path d="M1474 7319 c-118 -45 -185 -177 -160 -314 l7 -37 32 25 32 25 87 -84
c166 -157 339 -208 427 -125 25 23 31 37 31 71 0 45 -10 70 -48 115 -13 16
-46 76 -72 132 -58 123 -91 168 -141 194 -49 25 -128 24 -195 -2z"/>
<path d="M1712 6521 c-58 -6 -65 -9 -96 -46 l-34 -40 -36 18 c-50 23 -57 22
-88 -15 -21 -25 -30 -30 -36 -20 -6 9 -20 -12 -45 -67 -54 -117 -50 -122 45
-55 45 32 105 66 135 75 29 10 68 29 85 42 18 13 63 41 100 61 37 21 70 42 74
47 5 10 -3 10 -104 0z"/>
<path d="M4965 1720 c-9 -15 2 -28 45 -50 l39 -20 6 21 c9 28 -21 59 -56 59
-15 0 -31 -4 -34 -10z"/>
<path d="M5078 1723 c-18 -5 -23 -15 -12 -26 9 -8 54 14 48 24 -5 9 -8 10 -36
2z"/>
<path d="M5172 1653 l-23 -16 31 -13 c29 -13 49 -39 37 -51 -4 -3 -20 0 -37 7
-34 14 -35 14 -44 -17 -7 -20 -4 -23 23 -23 49 0 83 17 76 39 -3 12 0 21 10
25 24 9 17 34 -15 51 -34 18 -29 18 -58 -2z"/>
<path d="M5092 1625 c-43 -24 -47 -33 -18 -45 38 -14 46 -13 46 9 0 11 5 23
10 26 14 9 12 25 -2 24 -7 -1 -24 -7 -36 -14z"/>
<path d="M5406 1593 c-4 -4 -24 -6 -46 -4 -30 2 -41 -2 -49 -18 -9 -17 -8 -22
10 -31 38 -21 127 -13 121 10 -5 23 -29 50 -36 43z"/>
</g>
</svg>
